<svg xmlns="http://www.w3.org/2000/svg" version="1.1" xmlns:xlink="http://www.w3.org/1999/xlink" xmlns:svgjs="http://svgjs.com/svgjs" width="1440" height="400" preserveAspectRatio="none" viewBox="0 0 1440 400"><g mask="url(&quot;#SvgjsMask1039&quot;)" fill="none"><rect width="1440" height="400" x="0" y="0" fill="rgba(30, 34, 89, 1)"></rect><path d="M6 400L406 0L569.5 0L169.5 400z" fill="url(#SvgjsLinearGradient1040)"></path><path d="M260.6 400L660.6 0L863.1 0L463.1 400z" fill="url(#SvgjsLinearGradient1040)"></path><path d="M509.20000000000005 400L909.2 0L973.7 0L573.7 400z" fill="url(#SvgjsLinearGradient1040)"></path><path d="M759.8000000000001 400L1159.8000000000002 0L1441.8000000000002 0L1041.8000000000002 400z" fill="url(#SvgjsLinearGradient1040)"></path><path d="M1412 400L1012 0L874 0L1274 400z" fill="url(#SvgjsLinearGradient1041)"></path><path d="M1190.4 400L790.4000000000001 0L547.4000000000001 0L947.4000000000001 400z" fill="url(#SvgjsLinearGradient1041)"></path><path d="M947.8 400L547.8 0L466.79999999999995 0L866.8 400z" fill="url(#SvgjsLinearGradient1041)"></path><path d="M682.1999999999999 400L282.19999999999993 0L150.19999999999993 0L550.1999999999999 400z" fill="url(#SvgjsLinearGradient1041)"></path><path d="M1226.483605542412 400L1440 186.48360554241216L1440 400z" fill="url(#SvgjsLinearGradient1040)"></path><path d="M0 400L213.51639445758784 400L 0 186.48360554241216z" fill="url(#SvgjsLinearGradient1041)"></path></g><defs><mask id="SvgjsMask1039"><rect width="1440" height="400" fill="#ffffff"></rect></mask><linearGradient x1="0%" y1="100%" x2="100%" y2="0%" id="SvgjsLinearGradient1040"><stop stop-color="rgba(15, 70, 185, 0.2)" offset="0"></stop><stop stop-opacity="0" stop-color="rgba(15, 70, 185, 0.2)" offset="0.66"></stop></linearGradient><linearGradient x1="100%" y1="100%" x2="0%" y2="0%" id="SvgjsLinearGradient1041"><stop stop-color="rgba(15, 70, 185, 0.2)" offset="0"></stop><stop stop-opacity="0" stop-color="rgba(15, 70, 185, 0.2)" offset="0.66"></stop></linearGradient></defs></svg>